<svg xmlns="http://www.w3.org/2000/svg" width="1200" height="300" viewBox="0 0 1200 300" role="img" aria-labelledby="title desc">
  <title id="title">LÖVE Window Kit</title>
  <desc id="desc">Window and viewport tools for LÖVE2D</desc>
  <defs>
    <linearGradient id="bg" x1="0" y1="0" x2="1" y2="1">
      <stop offset="0" stop-color="#11141c"/>
      <stop offset="1" stop-color="#18131d"/>
    </linearGradient>
  </defs>

  <rect width="1200" height="300" rx="24" fill="url(#bg)"/>
  <rect x="65" y="58" width="300" height="184" rx="15" fill="#0c0f15" stroke="#343a48" stroke-width="3"/>
  <path d="M65 98h300" stroke="#343a48" stroke-width="2"/>
  <circle cx="89" cy="79" r="5" fill="#ec4899"/>
  <circle cx="108" cy="79" r="5" fill="#f4bd50"/>
  <circle cx="127" cy="79" r="5" fill="#43d995"/>
  <path d="M102 132h195M102 160h140M102 188h176" stroke="#565f73" stroke-width="8" stroke-linecap="round"/>
  <rect x="341" y="116" width="7" height="100" rx="3.5" fill="#2b3140"/>
  <rect x="341" y="141" width="7" height="38" rx="3.5" fill="#ec4899"/>

  <g transform="translate(435 88)" font-family="Inter,Segoe UI,sans-serif">
    <text x="0" y="52" fill="#f7f7fa" font-size="58" font-weight="800" letter-spacing="-2">LÖVE Window Kit</text>
    <text x="2" y="98" fill="#a4aaba" font-size="23">Window and viewport tools for LÖVE2D</text>
    <g transform="translate(2 126)" font-family="ui-monospace,SFMono-Regular,Consolas,monospace" font-size="15">
      <rect width="104" height="34" rx="17" fill="#2c1825"/>
      <text x="52" y="22" text-anchor="middle" fill="#ff8bc1">v1.2.0</text>
      <rect x="116" width="126" height="34" rx="17" fill="#19242c"/>
      <text x="179" y="22" text-anchor="middle" fill="#8ed8ff">LÖVE 11.5</text>
      <rect x="254" width="84" height="34" rx="17" fill="#18271f"/>
      <text x="296" y="22" text-anchor="middle" fill="#83e7ae">MIT</text>
    </g>
  </g>
</svg>
